<svg xmlns="http://www.w3.org/2000/svg" width="36" height="36" viewBox="0 0 36 36">
  <g fill="none" fill-rule="evenodd">
    <path fill="#F4900C" fill-rule="nonzero" d="M32.664,8.519 C29.364,5.134 23.42,4.75 18,4.75 C12.58,4.75 6.636,5.134 3.336,8.519 C0.582,11.344 0,15.751 0,19.791 C0,25.054 1.982,31.102 6.357,34.035 C9.364,36.051 13.95,35.871 18,35.871 C22.05,35.871 26.636,36.051 29.643,34.035 C34.018,31.101 36,25.054 36,19.791 C36,15.751 35.418,11.344 32.664,8.519 Z"/>
    <path fill="#3F7123" fill-rule="nonzero" d="M20.783,5.444 C20.8220623,5.63534862 20.7711908,5.83404183 20.6449803,5.98307559 C20.5187698,6.13210934 20.3311691,6.21501229 20.136,6.208 L15.685,6.208 C15.4897054,6.21540801 15.3018483,6.13261622 15.1755473,5.98347564 C15.0492463,5.83433506 14.9985267,5.63540719 15.038,5.444 L15.783,0.972 C15.8686464,0.538109206 16.2429307,0.221087855 16.685,0.208 L19.136,0.208 C19.562,0.208 19.968,0.552 20.037,0.972 L20.783,5.444 L20.783,5.444 Z"/>
    <path fill="#642116" fill-rule="nonzero" d="M20.654,21.159 L19.056,18.563 C18.765,18.021 18.383,17.75 17.999,17.746 C17.616,17.75 17.233,18.021 16.942,18.563 L15.344,21.159 C14.757,22.252 16.217,22.875 17.998,22.875 C19.779,22.875 21.241,22.251 20.654,21.159 L20.654,21.159 Z M30.162,24.351 C30.1167949,24.2759569 30.0356069,24.2300516 29.948,24.23 L29.107,24.23 C29.0387271,24.2300883 28.9734117,24.2578744 28.926,24.307 L26.695,26.641 L23.997,24.472 C23.9442891,24.4315055 23.8781571,24.4125596 23.812,24.419 C23.7455559,24.426211 23.6849058,24.4601462 23.644,24.513 L21.236,27.575 L18.182,24.309 C18.169,24.295 18.149,24.292 18.134,24.281 C18.119,24.271 18.109,24.254 18.091,24.247 C18.085,24.245 18.078,24.247 18.072,24.245 C18.048,24.238 18.025,24.24 18,24.24 C17.975,24.24 17.952,24.238 17.928,24.246 C17.922,24.248 17.915,24.245 17.908,24.248 C17.89,24.255 17.881,24.272 17.865,24.282 C17.849,24.292 17.83,24.295 17.817,24.309 L14.764,27.575 L12.355,24.513 C12.3140942,24.4601462 12.2534441,24.426211 12.187,24.419 C12.1208243,24.4123547 12.0546182,24.4313219 12.002,24.472 L9.304,26.641 L7.074,24.307 C7.02672253,24.2576796 6.96132012,24.2298565 6.893,24.23 L6.052,24.23 C5.964598,24.2301603 5.88362564,24.2759541 5.83844735,24.3507742 C5.79326906,24.4255944 5.79044526,24.5185762 5.831,24.596 L8.585,29.815 C8.61885524,29.8787866 8.67854348,29.9249012 8.7488104,29.9415584 C8.81907731,29.9582157 8.8931143,29.9438017 8.952,29.902 L10.986,28.444 L13.99,32.077 C14.0331155,32.1297009 14.0960741,32.1622657 14.164,32.167 L14.183,32.168 C14.2445222,32.168264 14.3039815,32.1458332 14.35,32.105 L18,28.836 L21.65,32.104 C21.6960185,32.1448332 21.7554778,32.167264 21.817,32.167 L21.836,32.166 C21.9039259,32.1612657 21.9668845,32.1287009 22.01,32.076 L25.015,28.443 L27.049,29.901 C27.109,29.944 27.182,29.961 27.252,29.941 C27.3220336,29.924623 27.3815079,29.8786489 27.415,29.815 L30.17,24.596 C30.2105007,24.5185855 30.2074647,24.4256075 30.162,24.351 L30.162,24.351 Z M27.976,15.421 C28.105,17.548 27.192,19.227 24.771,19.374 C22.351,19.52 21.242,17.963 21.113,15.837 C20.984,13.711 22.345,10.717 24.24,10.603 C26.136,10.487 27.848,13.294 27.976,15.421 Z M8.024,15.421 C7.895,17.548 8.808,19.227 11.229,19.374 C13.649,19.52 14.758,17.963 14.887,15.837 C15.016,13.711 13.655,10.717 11.76,10.603 C9.865,10.489 8.152,13.294 8.024,15.421 Z"/>
  </g>
</svg>
